<svg id="BACKGROUND" xmlns="http://www.w3.org/2000/svg" xmlns:xlink="http://www.w3.org/1999/xlink" viewBox="0 0 1244.88 500"><defs><style>.cls-1,.cls-9{fill:none;}.cls-2{clip-path:url(#clip-path);}.cls-3{opacity:0.85;}.cls-4{fill:#54b275;}.cls-5{fill:#2c5142;}.cls-6{fill:#0e8357;}.cls-7{fill:#fff0f9;}.cls-8{fill:#daf299;}.cls-9{stroke:#fff0f9;stroke-miterlimit:10;}</style><clipPath id="clip-path"><rect class="cls-1" width="1251.76" height="834.51"/></clipPath></defs><g class="cls-2"><g class="cls-3"><path class="cls-4" d="M338.84,345.62a.28.28,0,0,0,.28-.28.29.29,0,0,0-.28-.28.28.28,0,0,0-.28.28A.27.27,0,0,0,338.84,345.62Z"/><path class="cls-4" d="M348.85,346.43a1.09,1.09,0,1,0-1.08-1.09A1.08,1.08,0,0,0,348.85,346.43Z"/><path class="cls-4" d="M358.87,347a1.67,1.67,0,1,0-1.67-1.67A1.66,1.66,0,0,0,358.87,347Z"/><circle class="cls-4" cx="368.88" cy="345.34" r="2"/><path class="cls-4" d="M378.89,347.34a2,2,0,1,0-2-2A2,2,0,0,0,378.89,347.34Z"/><path class="cls-4" d="M388.91,347.31a2,2,0,1,0-2-2A2,2,0,0,0,388.91,347.31Z"/><path class="cls-4" d="M398.92,347a1.64,1.64,0,1,0-1.64-1.64A1.63,1.63,0,0,0,398.92,347Z"/><path class="cls-4" d="M408.94,346.43a1.09,1.09,0,1,0-1.09-1.09A1.09,1.09,0,0,0,408.94,346.43Z"/><path class="cls-4" d="M419,345.65a.31.31,0,0,0,.31-.31.31.31,0,0,0-.62,0A.31.31,0,0,0,419,345.65Z"/><circle class="cls-4" cx="318.81" cy="355.36" r="0.39"/><circle class="cls-4" cx="328.82" cy="355.36" r="1.69"/><path class="cls-4" d="M338.84,357.88a2.53,2.53,0,1,0-2.53-2.52A2.52,2.52,0,0,0,338.84,357.88Z"/><path class="cls-4" d="M348.85,357.94a2.59,2.59,0,1,0-2.58-2.58A2.58,2.58,0,0,0,348.85,357.94Z"/><path class="cls-4" d="M358.87,357.94a2.59,2.59,0,1,0-2.59-2.58A2.59,2.59,0,0,0,358.87,357.94Z"/><path class="cls-4" d="M368.88,357.94a2.59,2.59,0,1,0-2.58-2.58A2.58,2.58,0,0,0,368.88,357.94Z"/><path class="cls-4" d="M378.89,357.94a2.59,2.59,0,1,0-2.58-2.58A2.59,2.59,0,0,0,378.89,357.94Z"/><path class="cls-4" d="M388.91,357.94a2.59,2.59,0,1,0-2.58-2.58A2.59,2.59,0,0,0,388.91,357.94Z"/><path class="cls-4" d="M398.92,357.94a2.59,2.59,0,1,0-2.58-2.58A2.58,2.58,0,0,0,398.92,357.94Z"/><path class="cls-4" d="M408.94,357.94a2.59,2.59,0,1,0-2.59-2.58A2.59,2.59,0,0,0,408.94,357.94Z"/><path class="cls-4" d="M419,357.88a2.53,2.53,0,1,0-2.53-2.52A2.52,2.52,0,0,0,419,357.88Z"/><path class="cls-4" d="M429,357.08a1.73,1.73,0,1,0-1.72-1.72A1.72,1.72,0,0,0,429,357.08Z"/><circle class="cls-4" cx="438.98" cy="355.36" r="0.39"/><path class="cls-4" d="M308.8,366.43a1.06,1.06,0,1,0-1.06-1.06A1.06,1.06,0,0,0,308.8,366.43Z"/><path class="cls-4" d="M318.81,367.84a2.47,2.47,0,1,0-2.47-2.47A2.47,2.47,0,0,0,318.81,367.84Z"/><path class="cls-4" d="M328.82,368a2.58,2.58,0,1,0-2.58-2.58A2.58,2.58,0,0,0,328.82,368Z"/><path class="cls-4" d="M338.84,368a2.58,2.58,0,1,0-2.58-2.58A2.58,2.58,0,0,0,338.84,368Z"/><path class="cls-4" d="M348.85,368a2.58,2.58,0,1,0-2.58-2.58A2.57,2.57,0,0,0,348.85,368Z"/><path class="cls-4" d="M358.87,368a2.58,2.58,0,1,0-2.59-2.58A2.58,2.58,0,0,0,358.87,368Z"/><path class="cls-4" d="M368.88,368a2.58,2.58,0,1,0-2.58-2.58A2.57,2.57,0,0,0,368.88,368Z"/><path class="cls-4" d="M378.89,368a2.58,2.58,0,1,0-2.58-2.58A2.58,2.58,0,0,0,378.89,368Z"/><path class="cls-4" d="M388.91,368a2.58,2.58,0,1,0-2.58-2.58A2.58,2.58,0,0,0,388.91,368Z"/><path class="cls-4" d="M398.92,368a2.58,2.58,0,1,0-2.58-2.58A2.57,2.57,0,0,0,398.92,368Z"/><path class="cls-4" d="M408.94,368a2.58,2.58,0,1,0-2.59-2.58A2.58,2.58,0,0,0,408.94,368Z"/><path class="cls-4" d="M419,368a2.58,2.58,0,1,0-2.58-2.58A2.57,2.57,0,0,0,419,368Z"/><path class="cls-4" d="M429,368a2.58,2.58,0,1,0-2.58-2.58A2.58,2.58,0,0,0,429,368Z"/><path class="cls-4" d="M439,367.84a2.47,2.47,0,1,0-2.47-2.47A2.47,2.47,0,0,0,439,367.84Z"/><path class="cls-4" d="M449,366.43a1.06,1.06,0,1,0,0-2.11,1.06,1.06,0,0,0,0,2.11Z"/><path class="cls-4" d="M298.78,376.69a1.31,1.31,0,1,0-1.3-1.31A1.31,1.31,0,0,0,298.78,376.69Z"/><path class="cls-4" d="M308.8,378a2.59,2.59,0,1,0-2.59-2.59A2.59,2.59,0,0,0,308.8,378Z"/><path class="cls-4" d="M318.81,378a2.59,2.59,0,1,0-2.58-2.59A2.58,2.58,0,0,0,318.81,378Z"/><path class="cls-4" d="M328.82,378a2.59,2.59,0,1,0-2.58-2.59A2.59,2.59,0,0,0,328.82,378Z"/><path class="cls-4" d="M338.84,378a2.59,2.59,0,1,0-2.58-2.59A2.59,2.59,0,0,0,338.84,378Z"/><path class="cls-4" d="M348.85,378a2.59,2.59,0,1,0-2.58-2.59A2.58,2.58,0,0,0,348.85,378Z"/><path class="cls-4" d="M358.87,378a2.59,2.59,0,1,0-2.59-2.59A2.59,2.59,0,0,0,358.87,378Z"/><path class="cls-4" d="M368.88,378a2.59,2.59,0,1,0-2.58-2.59A2.58,2.58,0,0,0,368.88,378Z"/><path class="cls-4" d="M378.89,378a2.59,2.59,0,1,0-2.58-2.59A2.59,2.59,0,0,0,378.89,378Z"/><path class="cls-4" d="M388.91,378a2.59,2.59,0,1,0-2.58-2.59A2.59,2.59,0,0,0,388.91,378Z"/><path class="cls-4" d="M398.92,378a2.59,2.59,0,1,0-2.58-2.59A2.58,2.58,0,0,0,398.92,378Z"/><path class="cls-4" d="M408.94,378a2.59,2.59,0,1,0-2.59-2.59A2.59,2.59,0,0,0,408.94,378Z"/><path class="cls-4" d="M419,378a2.59,2.59,0,1,0-2.58-2.59A2.58,2.58,0,0,0,419,378Z"/><path class="cls-4" d="M429,378a2.59,2.59,0,1,0-2.58-2.59A2.59,2.59,0,0,0,429,378Z"/><path class="cls-4" d="M439,378a2.59,2.59,0,1,0-2.58-2.59A2.59,2.59,0,0,0,439,378Z"/><path class="cls-4" d="M449,378a2.59,2.59,0,1,0-2.58-2.59A2.59,2.59,0,0,0,449,378Z"/><path class="cls-4" d="M459,376.77a1.39,1.39,0,1,0-1.39-1.39A1.39,1.39,0,0,0,459,376.77Z"/><path class="cls-4" d="M288.77,386.45a1.06,1.06,0,0,0,0-2.11,1.06,1.06,0,1,0,0,2.11Z"/><path class="cls-4" d="M298.78,388a2.58,2.58,0,1,0-2.58-2.58A2.57,2.57,0,0,0,298.78,388Z"/><path class="cls-4" d="M308.8,388a2.58,2.58,0,1,0-2.59-2.58A2.58,2.58,0,0,0,308.8,388Z"/><path class="cls-4" d="M318.81,388a2.58,2.58,0,1,0-2.58-2.58A2.57,2.57,0,0,0,318.81,388Z"/><path class="cls-4" d="M328.82,388a2.58,2.58,0,1,0-2.58-2.58A2.58,2.58,0,0,0,328.82,388Z"/><path class="cls-4" d="M338.84,388a2.58,2.58,0,1,0-2.58-2.58A2.58,2.58,0,0,0,338.84,388Z"/><path class="cls-4" d="M348.85,388a2.58,2.58,0,1,0-2.58-2.58A2.57,2.57,0,0,0,348.85,388Z"/><path class="cls-4" d="M358.87,388a2.58,2.58,0,1,0-2.59-2.58A2.58,2.58,0,0,0,358.87,388Z"/><path class="cls-4" d="M368.88,388a2.58,2.58,0,1,0-2.58-2.58A2.57,2.57,0,0,0,368.88,388Z"/><path class="cls-4" d="M378.89,388a2.58,2.58,0,1,0-2.58-2.58A2.58,2.58,0,0,0,378.89,388Z"/><path class="cls-4" d="M388.91,388a2.58,2.58,0,1,0-2.58-2.58A2.58,2.58,0,0,0,388.91,388Z"/><path class="cls-4" d="M398.92,388a2.58,2.58,0,1,0-2.58-2.58A2.57,2.57,0,0,0,398.92,388Z"/><path class="cls-4" d="M408.94,388a2.58,2.58,0,1,0-2.59-2.58A2.58,2.58,0,0,0,408.94,388Z"/><path class="cls-4" d="M419,388a2.58,2.58,0,1,0-2.58-2.58A2.57,2.57,0,0,0,419,388Z"/><path class="cls-4" d="M429,388a2.58,2.58,0,1,0-2.58-2.58A2.58,2.58,0,0,0,429,388Z"/><path class="cls-4" d="M439,388a2.58,2.58,0,1,0-2.58-2.58A2.58,2.58,0,0,0,439,388Z"/><path class="cls-4" d="M449,388a2.58,2.58,0,1,0-2.58-2.58A2.58,2.58,0,0,0,449,388Z"/><path class="cls-4" d="M459,388a2.58,2.58,0,1,0-2.59-2.58A2.58,2.58,0,0,0,459,388Z"/><path class="cls-4" d="M469,386.43a1,1,0,1,0-1-1A1,1,0,0,0,469,386.43Z"/><path class="cls-4" d="M278.75,395.8a.38.38,0,0,0,.39-.39.39.39,0,0,0-.39-.39.4.4,0,0,0-.39.39A.39.39,0,0,0,278.75,395.8Z"/><circle class="cls-4" cx="288.77" cy="395.41" r="2.47"/><path class="cls-4" d="M298.78,398a2.59,2.59,0,1,0-2.58-2.59A2.58,2.58,0,0,0,298.78,398Z"/><path class="cls-4" d="M308.8,398a2.59,2.59,0,1,0-2.59-2.59A2.59,2.59,0,0,0,308.8,398Z"/><path class="cls-4" d="M318.81,398a2.59,2.59,0,1,0-2.58-2.59A2.58,2.58,0,0,0,318.81,398Z"/><path class="cls-4" d="M328.82,398a2.59,2.59,0,1,0-2.58-2.59A2.59,2.59,0,0,0,328.82,398Z"/><path class="cls-4" d="M338.84,398a2.59,2.59,0,1,0-2.58-2.59A2.59,2.59,0,0,0,338.84,398Z"/><path class="cls-4" d="M348.85,398a2.59,2.59,0,1,0-2.58-2.59A2.58,2.58,0,0,0,348.85,398Z"/><path class="cls-4" d="M358.87,398a2.59,2.59,0,1,0-2.59-2.59A2.59,2.59,0,0,0,358.87,398Z"/><path class="cls-4" d="M368.88,398a2.59,2.59,0,1,0-2.58-2.59A2.58,2.58,0,0,0,368.88,398Z"/><path class="cls-4" d="M378.89,398a2.59,2.59,0,1,0-2.58-2.59A2.59,2.59,0,0,0,378.89,398Z"/><path class="cls-4" d="M388.91,398a2.59,2.59,0,1,0-2.58-2.59A2.59,2.59,0,0,0,388.91,398Z"/><path class="cls-4" d="M398.92,398a2.59,2.59,0,1,0-2.58-2.59A2.58,2.58,0,0,0,398.92,398Z"/><path class="cls-4" d="M408.94,398a2.59,2.59,0,1,0-2.59-2.59A2.59,2.59,0,0,0,408.94,398Z"/><path class="cls-4" d="M419,398a2.59,2.59,0,1,0-2.58-2.59A2.58,2.58,0,0,0,419,398Z"/><path class="cls-4" d="M429,398a2.59,2.59,0,1,0-2.58-2.59A2.59,2.59,0,0,0,429,398Z"/><path class="cls-4" d="M439,398a2.59,2.59,0,1,0-2.58-2.59A2.59,2.59,0,0,0,439,398Z"/><path class="cls-4" d="M449,398a2.59,2.59,0,1,0-2.58-2.59A2.59,2.59,0,0,0,449,398Z"/><path class="cls-4" d="M459,398a2.59,2.59,0,1,0-2.59-2.59A2.59,2.59,0,0,0,459,398Z"/><path class="cls-4" d="M469,397.91a2.5,2.5,0,1,0-2.5-2.5A2.5,2.5,0,0,0,469,397.91Z"/><path class="cls-4" d="M479,395.8a.38.38,0,0,0,.39-.39.39.39,0,1,0-.77,0A.38.38,0,0,0,479,395.8Z"/><path class="cls-4" d="M278.75,407.12a1.7,1.7,0,1,0-1.69-1.69A1.7,1.7,0,0,0,278.75,407.12Z"/><path class="cls-4" d="M288.77,408a2.59,2.59,0,1,0-2.59-2.58A2.59,2.59,0,0,0,288.77,408Z"/><path class="cls-4" d="M298.78,408a2.59,2.59,0,1,0-2.58-2.58A2.58,2.58,0,0,0,298.78,408Z"/><path class="cls-4" d="M308.8,408a2.59,2.59,0,1,0-2.59-2.58A2.59,2.59,0,0,0,308.8,408Z"/><path class="cls-4" d="M318.81,408a2.59,2.59,0,1,0-2.58-2.58A2.58,2.58,0,0,0,318.81,408Z"/><path class="cls-4" d="M328.82,408a2.59,2.59,0,1,0-2.58-2.58A2.59,2.59,0,0,0,328.82,408Z"/><path class="cls-4" d="M338.84,408a2.59,2.59,0,1,0-2.58-2.58A2.59,2.59,0,0,0,338.84,408Z"/><path class="cls-4" d="M348.85,408a2.59,2.59,0,1,0-2.58-2.58A2.58,2.58,0,0,0,348.85,408Z"/><path class="cls-4" d="M358.87,408a2.59,2.59,0,1,0-2.59-2.58A2.59,2.59,0,0,0,358.87,408Z"/><path class="cls-4" d="M368.88,408a2.59,2.59,0,1,0-2.58-2.58A2.58,2.58,0,0,0,368.88,408Z"/><path class="cls-4" d="M378.89,408a2.59,2.59,0,1,0-2.58-2.58A2.59,2.59,0,0,0,378.89,408Z"/><path class="cls-4" d="M388.91,408a2.59,2.59,0,1,0-2.58-2.58A2.59,2.59,0,0,0,388.91,408Z"/><path class="cls-4" d="M398.92,408a2.59,2.59,0,1,0-2.58-2.58A2.58,2.58,0,0,0,398.92,408Z"/><path class="cls-4" d="M408.94,408a2.59,2.59,0,1,0-2.59-2.58A2.59,2.59,0,0,0,408.94,408Z"/><path class="cls-4" d="M419,408a2.59,2.59,0,1,0-2.58-2.58A2.58,2.58,0,0,0,419,408Z"/><path class="cls-4" d="M429,408a2.59,2.59,0,1,0-2.58-2.58A2.59,2.59,0,0,0,429,408Z"/><path class="cls-4" d="M439,408a2.59,2.59,0,1,0-2.58-2.58A2.59,2.59,0,0,0,439,408Z"/><path class="cls-4" d="M449,408a2.59,2.59,0,1,0-2.58-2.58A2.59,2.59,0,0,0,449,408Z"/><path class="cls-4" d="M459,408a2.59,2.59,0,1,0-2.59-2.58A2.59,2.59,0,0,0,459,408Z"/><path class="cls-4" d="M469,408a2.59,2.59,0,1,0-2.58-2.58A2.58,2.58,0,0,0,469,408Z"/><path class="cls-4" d="M479,407.12a1.7,1.7,0,1,0-1.69-1.69A1.7,1.7,0,0,0,479,407.12Z"/><path class="cls-4" d="M268.74,415.72a.28.28,0,1,0-.28-.28A.29.29,0,0,0,268.74,415.72Z"/><path class="cls-4" d="M278.75,418a2.53,2.53,0,1,0-2.52-2.53A2.53,2.53,0,0,0,278.75,418Z"/><path class="cls-4" d="M288.77,418a2.58,2.58,0,1,0-2.59-2.58A2.58,2.58,0,0,0,288.77,418Z"/><path class="cls-4" d="M298.78,418a2.58,2.58,0,1,0-2.58-2.58A2.57,2.57,0,0,0,298.78,418Z"/><path class="cls-4" d="M308.8,418a2.58,2.58,0,1,0-2.59-2.58A2.58,2.58,0,0,0,308.8,418Z"/><path class="cls-4" d="M318.81,418a2.58,2.58,0,1,0-2.58-2.58A2.57,2.57,0,0,0,318.81,418Z"/><path class="cls-4" d="M328.82,418a2.58,2.58,0,1,0-2.58-2.58A2.58,2.58,0,0,0,328.82,418Z"/><path class="cls-4" d="M338.84,418a2.58,2.58,0,1,0-2.58-2.58A2.58,2.58,0,0,0,338.84,418Z"/><path class="cls-4" d="M348.85,418a2.58,2.58,0,1,0-2.58-2.58A2.57,2.57,0,0,0,348.85,418Z"/><path class="cls-4" d="M358.87,418a2.58,2.58,0,1,0-2.59-2.58A2.58,2.58,0,0,0,358.87,418Z"/><path class="cls-4" d="M368.88,418a2.58,2.58,0,1,0-2.58-2.58A2.57,2.57,0,0,0,368.88,418Z"/><path class="cls-4" d="M378.89,418a2.58,2.58,0,1,0-2.58-2.58A2.58,2.58,0,0,0,378.89,418Z"/><path class="cls-4" d="M388.91,418a2.58,2.58,0,1,0-2.58-2.58A2.58,2.58,0,0,0,388.91,418Z"/><path class="cls-4" d="M398.92,418a2.58,2.58,0,1,0-2.58-2.58A2.57,2.57,0,0,0,398.92,418Z"/><path class="cls-4" d="M408.94,418a2.58,2.58,0,1,0-2.59-2.58A2.58,2.58,0,0,0,408.94,418Z"/><path class="cls-4" d="M419,418a2.58,2.58,0,1,0-2.58-2.58A2.57,2.57,0,0,0,419,418Z"/><path class="cls-4" d="M429,418a2.58,2.58,0,1,0-2.58-2.58A2.58,2.58,0,0,0,429,418Z"/><path class="cls-4" d="M439,418a2.58,2.58,0,1,0-2.58-2.58A2.58,2.58,0,0,0,439,418Z"/><path class="cls-4" d="M449,418a2.58,2.58,0,1,0-2.58-2.58A2.58,2.58,0,0,0,449,418Z"/><path class="cls-4" d="M459,418a2.58,2.58,0,1,0-2.59-2.58A2.58,2.58,0,0,0,459,418Z"/><path class="cls-4" d="M469,418a2.58,2.58,0,1,0-2.58-2.58A2.57,2.57,0,0,0,469,418Z"/><path class="cls-4" d="M479,418a2.53,2.53,0,1,0-2.52-2.53A2.53,2.53,0,0,0,479,418Z"/><path class="cls-4" d="M489.05,415.75a.3.3,0,0,0,.3-.31.29.29,0,0,0-.3-.3.3.3,0,0,0-.31.3A.31.31,0,0,0,489.05,415.75Z"/><path class="cls-4" d="M268.74,426.54a1.09,1.09,0,1,0-1.08-1.08A1.08,1.08,0,0,0,268.74,426.54Z"/><path class="cls-4" d="M278.75,428a2.59,2.59,0,1,0-2.58-2.58A2.59,2.59,0,0,0,278.75,428Z"/><path class="cls-4" d="M288.77,428a2.59,2.59,0,1,0-2.59-2.58A2.59,2.59,0,0,0,288.77,428Z"/><path class="cls-4" d="M298.78,428a2.59,2.59,0,1,0-2.58-2.58A2.58,2.58,0,0,0,298.78,428Z"/><path class="cls-4" d="M308.8,428a2.59,2.59,0,1,0-2.59-2.58A2.59,2.59,0,0,0,308.8,428Z"/><path class="cls-4" d="M318.81,428a2.59,2.59,0,1,0-2.58-2.58A2.58,2.58,0,0,0,318.81,428Z"/><path class="cls-4" d="M328.82,428a2.59,2.59,0,1,0-2.58-2.58A2.59,2.59,0,0,0,328.82,428Z"/><path class="cls-4" d="M338.84,428a2.59,2.59,0,1,0-2.58-2.58A2.59,2.59,0,0,0,338.84,428Z"/><path class="cls-4" d="M348.85,428a2.59,2.59,0,1,0-2.58-2.58A2.58,2.58,0,0,0,348.85,428Z"/><path class="cls-4" d="M358.87,428a2.59,2.59,0,1,0-2.59-2.58A2.59,2.59,0,0,0,358.87,428Z"/><path class="cls-4" d="M368.88,428a2.59,2.59,0,1,0-2.58-2.58A2.58,2.58,0,0,0,368.88,428Z"/><path class="cls-4" d="M378.89,428a2.59,2.59,0,1,0-2.58-2.58A2.59,2.59,0,0,0,378.89,428Z"/><path class="cls-4" d="M388.91,428a2.59,2.59,0,1,0-2.58-2.58A2.59,2.59,0,0,0,388.91,428Z"/><path class="cls-4" d="M398.92,428a2.59,2.59,0,1,0-2.58-2.58A2.58,2.58,0,0,0,398.92,428Z"/><path class="cls-4" d="M408.94,428a2.59,2.59,0,1,0-2.59-2.58A2.59,2.59,0,0,0,408.94,428Z"/><path class="cls-4" d="M419,428a2.59,2.59,0,1,0-2.58-2.58A2.58,2.58,0,0,0,419,428Z"/><path class="cls-4" d="M429,428a2.59,2.59,0,1,0-2.58-2.58A2.59,2.59,0,0,0,429,428Z"/><path class="cls-4" d="M439,428a2.59,2.59,0,1,0-2.58-2.58A2.59,2.59,0,0,0,439,428Z"/><path class="cls-4" d="M449,428a2.59,2.59,0,1,0-2.58-2.58A2.59,2.59,0,0,0,449,428Z"/><path class="cls-4" d="M459,428a2.59,2.59,0,1,0-2.59-2.58A2.59,2.59,0,0,0,459,428Z"/><path class="cls-4" d="M469,428a2.59,2.59,0,1,0-2.58-2.58A2.58,2.58,0,0,0,469,428Z"/><path class="cls-4" d="M479,428a2.59,2.59,0,1,0-2.58-2.58A2.59,2.59,0,0,0,479,428Z"/><path class="cls-4" d="M489.05,426.57a1.12,1.12,0,1,0-1.11-1.11A1.11,1.11,0,0,0,489.05,426.57Z"/><circle class="cls-4" cx="268.74" cy="435.47" r="1.67"/><path class="cls-4" d="M278.75,438.05a2.58,2.58,0,1,0-2.58-2.58A2.58,2.58,0,0,0,278.75,438.05Z"/><path class="cls-4" d="M288.77,438.05a2.58,2.58,0,1,0-2.59-2.58A2.58,2.58,0,0,0,288.77,438.05Z"/><path class="cls-4" d="M298.78,438.05a2.58,2.58,0,1,0-2.58-2.58A2.57,2.57,0,0,0,298.78,438.05Z"/><path class="cls-4" d="M308.8,438.05a2.58,2.58,0,1,0-2.59-2.58A2.58,2.58,0,0,0,308.8,438.05Z"/><path class="cls-4" d="M318.81,438.05a2.58,2.58,0,1,0-2.58-2.58A2.57,2.57,0,0,0,318.81,438.05Z"/><path class="cls-4" d="M328.82,438.05a2.58,2.58,0,1,0-2.58-2.58A2.58,2.58,0,0,0,328.82,438.05Z"/><path class="cls-4" d="M338.84,438.05a2.58,2.58,0,1,0-2.58-2.58A2.58,2.58,0,0,0,338.84,438.05Z"/><path class="cls-4" d="M348.85,438.05a2.58,2.58,0,1,0-2.58-2.58A2.57,2.57,0,0,0,348.85,438.05Z"/><path class="cls-4" d="M358.87,438.05a2.58,2.58,0,1,0-2.59-2.58A2.58,2.58,0,0,0,358.87,438.05Z"/><path class="cls-4" d="M368.88,438.05a2.58,2.58,0,1,0-2.58-2.58A2.57,2.57,0,0,0,368.88,438.05Z"/><path class="cls-4" d="M378.89,438.05a2.58,2.58,0,1,0-2.58-2.58A2.58,2.58,0,0,0,378.89,438.05Z"/><path class="cls-4" d="M388.91,438.05a2.58,2.58,0,1,0-2.58-2.58A2.58,2.58,0,0,0,388.91,438.05Z"/><path class="cls-4" d="M398.92,438.05a2.58,2.58,0,1,0-2.58-2.58A2.57,2.57,0,0,0,398.92,438.05Z"/><path class="cls-4" d="M408.94,438.05a2.58,2.58,0,1,0-2.59-2.58A2.58,2.58,0,0,0,408.94,438.05Z"/><path class="cls-4" d="M419,438.05a2.58,2.58,0,1,0-2.58-2.58A2.57,2.57,0,0,0,419,438.05Z"/><path class="cls-4" d="M429,438.05a2.58,2.58,0,1,0-2.58-2.58A2.58,2.58,0,0,0,429,438.05Z"/><path class="cls-4" d="M439,438.05a2.58,2.58,0,1,0-2.58-2.58A2.58,2.58,0,0,0,439,438.05Z"/><path class="cls-4" d="M449,438.05a2.58,2.58,0,1,0-2.58-2.58A2.58,2.58,0,0,0,449,438.05Z"/><path class="cls-4" d="M459,438.05a2.58,2.58,0,1,0-2.59-2.58A2.58,2.58,0,0,0,459,438.05Z"/><path class="cls-4" d="M469,438.05a2.58,2.58,0,1,0-2.58-2.58A2.57,2.57,0,0,0,469,438.05Z"/><path class="cls-4" d="M479,438.05a2.58,2.58,0,1,0-2.58-2.58A2.58,2.58,0,0,0,479,438.05Z"/><circle class="cls-4" cx="489.05" cy="435.47" r="1.67"/><circle class="cls-4" cx="268.74" cy="445.48" r="2"/><path class="cls-4" d="M278.75,448.07a2.59,2.59,0,1,0-2.58-2.59A2.59,2.59,0,0,0,278.75,448.07Z"/><path class="cls-4" d="M288.77,448.07a2.59,2.59,0,1,0-2.59-2.59A2.59,2.59,0,0,0,288.77,448.07Z"/><path class="cls-4" d="M298.78,448.07a2.59,2.59,0,1,0-2.58-2.59A2.58,2.58,0,0,0,298.78,448.07Z"/><path class="cls-4" d="M308.8,448.07a2.59,2.59,0,1,0-2.59-2.59A2.59,2.59,0,0,0,308.8,448.07Z"/><path class="cls-4" d="M318.81,448.07a2.59,2.59,0,1,0-2.58-2.59A2.58,2.58,0,0,0,318.81,448.07Z"/><path class="cls-4" d="M328.82,448.07a2.59,2.59,0,1,0-2.58-2.59A2.59,2.59,0,0,0,328.82,448.07Z"/><path class="cls-4" d="M338.84,448.07a2.59,2.59,0,1,0-2.58-2.59A2.59,2.59,0,0,0,338.84,448.07Z"/><path class="cls-4" d="M348.85,448.07a2.59,2.59,0,1,0-2.58-2.59A2.58,2.58,0,0,0,348.85,448.07Z"/><path class="cls-4" d="M358.87,448.07a2.59,2.59,0,1,0-2.59-2.59A2.59,2.59,0,0,0,358.87,448.07Z"/><path class="cls-4" d="M368.88,448.07a2.59,2.59,0,1,0-2.58-2.59A2.58,2.58,0,0,0,368.88,448.07Z"/><path class="cls-4" d="M378.89,448.07a2.59,2.59,0,1,0-2.58-2.59A2.59,2.59,0,0,0,378.89,448.07Z"/><path class="cls-4" d="M388.91,448.07a2.59,2.59,0,1,0-2.58-2.59A2.59,2.59,0,0,0,388.91,448.07Z"/><path class="cls-4" d="M398.92,448.07a2.59,2.59,0,1,0-2.58-2.59A2.58,2.58,0,0,0,398.92,448.07Z"/><path class="cls-4" d="M408.94,448.07a2.59,2.59,0,1,0-2.59-2.59A2.59,2.59,0,0,0,408.94,448.07Z"/><path class="cls-4" d="M419,448.07a2.59,2.59,0,1,0-2.58-2.59A2.58,2.58,0,0,0,419,448.07Z"/><path class="cls-4" d="M429,448.07a2.59,2.59,0,1,0-2.58-2.59A2.59,2.59,0,0,0,429,448.07Z"/><path class="cls-4" d="M439,448.07a2.59,2.59,0,1,0-2.58-2.59A2.59,2.59,0,0,0,439,448.07Z"/><path class="cls-4" d="M449,448.07a2.59,2.59,0,1,0-2.58-2.59A2.59,2.59,0,0,0,449,448.07Z"/><path class="cls-4" d="M459,448.07a2.59,2.59,0,1,0-2.59-2.59A2.59,2.59,0,0,0,459,448.07Z"/><path class="cls-4" d="M469,448.07a2.59,2.59,0,1,0-2.58-2.59A2.58,2.58,0,0,0,469,448.07Z"/><path class="cls-4" d="M479,448.07a2.59,2.59,0,1,0-2.58-2.59A2.59,2.59,0,0,0,479,448.07Z"/><path class="cls-4" d="M489.05,447.51a2,2,0,1,0-2-2A2,2,0,0,0,489.05,447.51Z"/><circle class="cls-4" cx="268.74" cy="455.5" r="2"/><circle class="cls-4" cx="278.75" cy="455.5" r="2.58"/><circle class="cls-4" cx="288.77" cy="455.5" r="2.58"/><circle class="cls-4" cx="298.78" cy="455.5" r="2.58"/><circle class="cls-4" cx="308.8" cy="455.5" r="2.58"/><circle class="cls-4" cx="318.81" cy="455.5" r="2.58"/><circle class="cls-4" cx="328.82" cy="455.5" r="2.58"/><circle class="cls-4" cx="338.84" cy="455.5" r="2.58"/><path class="cls-4" d="M348.85,458.08a2.58,2.58,0,1,0-2.58-2.58A2.58,2.58,0,0,0,348.85,458.08Z"/><path class="cls-4" d="M358.87,458.08a2.58,2.58,0,1,0-2.59-2.58A2.59,2.59,0,0,0,358.87,458.08Z"/><path class="cls-4" d="M368.88,458.08a2.58,2.58,0,1,0-2.58-2.58A2.58,2.58,0,0,0,368.88,458.08Z"/><path class="cls-4" d="M378.89,458.08a2.58,2.58,0,1,0-2.58-2.58A2.59,2.59,0,0,0,378.89,458.08Z"/><path class="cls-4" d="M388.91,458.08a2.58,2.58,0,1,0-2.58-2.58A2.59,2.59,0,0,0,388.91,458.08Z"/><path class="cls-4" d="M398.92,458.08a2.58,2.58,0,1,0-2.58-2.58A2.58,2.58,0,0,0,398.92,458.08Z"/><path class="cls-4" d="M408.94,458.08a2.58,2.58,0,1,0-2.59-2.58A2.59,2.59,0,0,0,408.94,458.08Z"/><path class="cls-4" d="M419,458.08a2.58,2.58,0,1,0-2.58-2.58A2.58,2.58,0,0,0,419,458.08Z"/><path class="cls-4" d="M429,458.08a2.58,2.58,0,1,0-2.58-2.58A2.59,2.59,0,0,0,429,458.08Z"/><path class="cls-4" d="M439,458.08a2.58,2.58,0,1,0-2.58-2.58A2.59,2.59,0,0,0,439,458.08Z"/><path class="cls-4" d="M449,458.08a2.58,2.58,0,1,0-2.58-2.58A2.59,2.59,0,0,0,449,458.08Z"/><path class="cls-4" d="M459,458.08a2.58,2.58,0,1,0-2.59-2.58A2.59,2.59,0,0,0,459,458.08Z"/><circle class="cls-4" cx="469.02" cy="455.5" r="2.58"/><circle class="cls-4" cx="479.03" cy="455.5" r="2.58"/><path class="cls-4" d="M489.05,457.58A2.09,2.09,0,1,0,487,455.5,2.08,2.08,0,0,0,489.05,457.58Z"/><circle class="cls-4" cx="268.74" cy="465.51" r="1.97"/><circle class="cls-4" cx="278.75" cy="465.51" r="2.58"/><circle class="cls-4" cx="288.77" cy="465.51" r="2.58"/><circle class="cls-4" cx="298.78" cy="465.51" r="2.58"/><circle class="cls-4" cx="308.8" cy="465.51" r="2.58"/><circle class="cls-4" cx="318.81" cy="465.51" r="2.58"/><circle class="cls-4" cx="328.82" cy="465.51" r="2.58"/><circle class="cls-4" cx="338.84" cy="465.51" r="2.58"/><path class="cls-4" d="M348.85,468.09a2.58,2.58,0,1,0-2.58-2.58A2.57,2.57,0,0,0,348.85,468.09Z"/><path class="cls-4" d="M358.87,468.09a2.58,2.58,0,1,0-2.59-2.58A2.58,2.58,0,0,0,358.87,468.09Z"/><path class="cls-4" d="M368.88,468.09a2.58,2.58,0,1,0-2.58-2.58A2.57,2.57,0,0,0,368.88,468.09Z"/><path class="cls-4" d="M378.89,468.09a2.58,2.58,0,1,0-2.58-2.58A2.58,2.58,0,0,0,378.89,468.09Z"/><path class="cls-4" d="M388.91,468.09a2.58,2.58,0,1,0-2.58-2.58A2.58,2.58,0,0,0,388.91,468.09Z"/><path class="cls-4" d="M398.92,468.09a2.58,2.58,0,1,0-2.58-2.58A2.57,2.57,0,0,0,398.92,468.09Z"/><path class="cls-4" d="M408.94,468.09a2.58,2.58,0,1,0-2.59-2.58A2.58,2.58,0,0,0,408.94,468.09Z"/><path class="cls-4" d="M419,468.09a2.58,2.58,0,1,0-2.58-2.58A2.57,2.57,0,0,0,419,468.09Z"/><path class="cls-4" d="M429,468.09a2.58,2.58,0,1,0-2.58-2.58A2.58,2.58,0,0,0,429,468.09Z"/><path class="cls-4" d="M439,468.09a2.58,2.58,0,1,0-2.58-2.58A2.58,2.58,0,0,0,439,468.09Z"/><path class="cls-4" d="M449,468.09a2.58,2.58,0,1,0-2.58-2.58A2.58,2.58,0,0,0,449,468.09Z"/><path class="cls-4" d="M459,468.09a2.58,2.58,0,1,0-2.59-2.58A2.58,2.58,0,0,0,459,468.09Z"/><circle class="cls-4" cx="469.02" cy="465.51" r="2.58"/><circle class="cls-4" cx="479.03" cy="465.51" r="2.58"/><circle class="cls-4" cx="489.05" cy="465.51" r="2"/><circle class="cls-4" cx="268.74" cy="475.53" r="1.64"/><circle class="cls-4" cx="278.75" cy="475.53" r="2.58"/><circle class="cls-4" cx="288.77" cy="475.53" r="2.58"/><circle class="cls-4" cx="298.78" cy="475.53" r="2.58"/><circle class="cls-4" cx="308.8" cy="475.53" r="2.58"/><circle class="cls-4" cx="318.81" cy="475.53" r="2.58"/><circle class="cls-4" cx="328.82" cy="475.53" r="2.58"/><circle class="cls-4" cx="338.84" cy="475.53" r="2.58"/><path class="cls-4" d="M348.85,478.11a2.59,2.59,0,1,0-2.58-2.58A2.58,2.58,0,0,0,348.85,478.11Z"/><path class="cls-4" d="M358.87,478.11a2.59,2.59,0,1,0-2.59-2.58A2.59,2.59,0,0,0,358.87,478.11Z"/><path class="cls-4" d="M368.88,478.11a2.59,2.59,0,1,0-2.58-2.58A2.58,2.58,0,0,0,368.88,478.11Z"/><path class="cls-4" d="M378.89,478.11a2.59,2.59,0,1,0-2.58-2.58A2.59,2.59,0,0,0,378.89,478.11Z"/><path class="cls-4" d="M388.91,478.11a2.59,2.59,0,1,0-2.58-2.58A2.59,2.59,0,0,0,388.91,478.11Z"/><path class="cls-4" d="M398.92,478.11a2.59,2.59,0,1,0-2.58-2.58A2.58,2.58,0,0,0,398.92,478.11Z"/><path class="cls-4" d="M408.94,478.11a2.59,2.59,0,1,0-2.59-2.58A2.59,2.59,0,0,0,408.94,478.11Z"/><path class="cls-4" d="M419,478.11a2.59,2.59,0,1,0-2.58-2.58A2.58,2.58,0,0,0,419,478.11Z"/><path class="cls-4" d="M429,478.11a2.59,2.59,0,1,0-2.58-2.58A2.59,2.59,0,0,0,429,478.11Z"/><path class="cls-4" d="M439,478.11a2.59,2.59,0,1,0-2.58-2.58A2.59,2.59,0,0,0,439,478.11Z"/><path class="cls-4" d="M449,478.11a2.59,2.59,0,1,0-2.58-2.58A2.59,2.59,0,0,0,449,478.11Z"/><path class="cls-4" d="M459,478.11a2.59,2.59,0,1,0-2.59-2.58A2.59,2.59,0,0,0,459,478.11Z"/><circle class="cls-4" cx="469.02" cy="475.53" r="2.58"/><circle class="cls-4" cx="479.03" cy="475.53" r="2.58"/><circle class="cls-4" cx="489.05" cy="475.53" r="1.67"/><circle class="cls-4" cx="268.74" cy="485.54" r="1.08"/><circle class="cls-4" cx="278.75" cy="485.54" r="2.58"/><circle class="cls-4" cx="288.77" cy="485.54" r="2.58"/><circle class="cls-4" cx="298.78" cy="485.54" r="2.58"/><circle class="cls-4" cx="308.8" cy="485.54" r="2.58"/><circle class="cls-4" cx="318.81" cy="485.54" r="2.58"/><circle class="cls-4" cx="328.82" cy="485.54" r="2.58"/><circle class="cls-4" cx="338.84" cy="485.54" r="2.58"/><path class="cls-4" d="M348.85,488.12a2.58,2.58,0,1,0-2.58-2.58A2.57,2.57,0,0,0,348.85,488.12Z"/><path class="cls-4" d="M358.87,488.12a2.58,2.58,0,1,0-2.59-2.58A2.58,2.58,0,0,0,358.87,488.12Z"/><path class="cls-4" d="M368.88,488.12a2.58,2.58,0,1,0-2.58-2.58A2.57,2.57,0,0,0,368.88,488.12Z"/><path class="cls-4" d="M378.89,488.12a2.58,2.58,0,1,0-2.58-2.58A2.58,2.58,0,0,0,378.89,488.12Z"/><path class="cls-4" d="M388.91,488.12a2.58,2.58,0,1,0-2.58-2.58A2.58,2.58,0,0,0,388.91,488.12Z"/><path class="cls-4" d="M398.92,488.12a2.58,2.58,0,1,0-2.58-2.58A2.57,2.57,0,0,0,398.92,488.12Z"/><path class="cls-4" d="M408.94,488.12a2.58,2.58,0,1,0-2.59-2.58A2.58,2.58,0,0,0,408.94,488.12Z"/><path class="cls-4" d="M419,488.12a2.58,2.58,0,1,0-2.58-2.58A2.57,2.57,0,0,0,419,488.12Z"/><path class="cls-4" d="M429,488.12a2.58,2.58,0,1,0-2.58-2.58A2.58,2.58,0,0,0,429,488.12Z"/><path class="cls-4" d="M439,488.12a2.58,2.58,0,1,0-2.58-2.58A2.58,2.58,0,0,0,439,488.12Z"/><path class="cls-4" d="M449,488.12a2.58,2.58,0,1,0-2.58-2.58A2.58,2.58,0,0,0,449,488.12Z"/><path class="cls-4" d="M459,488.12a2.58,2.58,0,1,0-2.59-2.58A2.58,2.58,0,0,0,459,488.12Z"/><circle class="cls-4" cx="469.02" cy="485.54" r="2.58"/><circle class="cls-4" cx="479.03" cy="485.54" r="2.58"/><path class="cls-4" d="M489.05,486.65a1.11,1.11,0,1,0-1.11-1.11A1.11,1.11,0,0,0,489.05,486.65Z"/><path class="cls-4" d="M268.74,495.86a.31.31,0,0,0,0-.61.31.31,0,1,0,0,.61Z"/><path class="cls-4" d="M278.75,498.08a2.53,2.53,0,1,0-2.52-2.53A2.53,2.53,0,0,0,278.75,498.08Z"/><circle class="cls-4" cx="288.77" cy="495.55" r="2.58"/><circle class="cls-4" cx="298.78" cy="495.55" r="2.58"/><circle class="cls-4" cx="308.8" cy="495.55" r="2.58"/><circle class="cls-4" cx="318.81" cy="495.55" r="2.58"/><circle class="cls-4" cx="328.82" cy="495.55" r="2.58"/><circle class="cls-4" cx="338.84" cy="495.55" r="2.58"/><path class="cls-4" d="M348.85,498.14a2.59,2.59,0,1,0-2.58-2.59A2.58,2.58,0,0,0,348.85,498.14Z"/><path class="cls-4" d="M358.87,498.14a2.59,2.59,0,1,0-2.59-2.59A2.59,2.59,0,0,0,358.87,498.14Z"/><path class="cls-4" d="M368.88,498.14a2.59,2.59,0,1,0-2.58-2.59A2.58,2.58,0,0,0,368.88,498.14Z"/><path class="cls-4" d="M378.89,498.14a2.59,2.59,0,1,0-2.58-2.59A2.59,2.59,0,0,0,378.89,498.14Z"/><path class="cls-4" d="M388.91,498.14a2.59,2.59,0,1,0-2.58-2.59A2.59,2.59,0,0,0,388.91,498.14Z"/><path class="cls-4" d="M398.92,498.14a2.59,2.59,0,1,0-2.58-2.59A2.58,2.58,0,0,0,398.92,498.14Z"/><path class="cls-4" d="M408.94,498.14a2.59,2.59,0,1,0-2.59-2.59A2.59,2.59,0,0,0,408.94,498.14Z"/><path class="cls-4" d="M419,498.14a2.59,2.59,0,1,0-2.58-2.59A2.58,2.58,0,0,0,419,498.14Z"/><path class="cls-4" d="M429,498.14a2.59,2.59,0,1,0-2.58-2.59A2.59,2.59,0,0,0,429,498.14Z"/><path class="cls-4" d="M439,498.14a2.59,2.59,0,1,0-2.58-2.59A2.59,2.59,0,0,0,439,498.14Z"/><path class="cls-4" d="M449,498.14a2.59,2.59,0,1,0-2.58-2.59A2.59,2.59,0,0,0,449,498.14Z"/><path class="cls-4" d="M459,498.14a2.59,2.59,0,1,0-2.59-2.59A2.59,2.59,0,0,0,459,498.14Z"/><circle class="cls-4" cx="469.02" cy="495.55" r="2.58"/><circle class="cls-4" cx="479.03" cy="495.55" r="2.55"/><path class="cls-4" d="M489.05,495.89a.34.34,0,0,0,0-.67.34.34,0,0,0,0,.67Z"/><path class="cls-5" d="M320.35,338.37c52.15,166,259.9,176.76,443.42,121.76,59-17.68,109.44-42.09,174.83-38.3,111.85,6.47,206.49,78.27,244.85,225H320.35Z"/><path class="cls-6" d="M39.67,192.82c57-44.06,165.23-66,218.62-6.32,50,55.95,63.36,147.25,90.21,204.47,20.64,44,56.09,101.86,200.42,117.59,72.64,7.91,75.8,76.87,67.8,123.4C589,809,188,870,54,794-90,724.14-129.48,559.31-100.78,412.58-73.85,327.33-33.11,244.88,39.67,192.82Z"/><path class="cls-7" d="M177,185.46c-32.31-18.85-103.68,23.25-118.21,56.2s42.63,42.63,67.82,32.94S200.24,199,177,185.46Z"/><path class="cls-6" d="M617.31,53.64c149.2,100.69,132.82,198.18,210,223.92,57.21,19.07,124.5-41.8,207.65-49.72s156.91,86,303.42-50.57V53.64Z"/><path class="cls-6" d="M641.57,115.72c26,24.71,20.86,40.26,8.44,45.17-18.92,7.49-60.62-8.07-44.44-21.38,6.19-5.09,15.34-4.76,11.69-15.14C609.63,105.19,630.67,105.37,641.57,115.72Z"/><path class="cls-8" d="M982.32-98.68C1060.39,133.25,832,245.08,678.94,103,511.69-52.35,453.39,51.19,351.07,27.58c-73.49-17-132.83-120-258.51-142.43C327.7-193.84,787.23-284.7,982.32-98.68Z"/><path class="cls-5" d="M395.22-137.78c89.52-27.25,193.17-1,258.89,65.64,53,53.76,80.21,128,129.93,184.34C857.9,196,981.7,231.91,1088.92,200.67c48.81-14.22,93.16-40.72,141.32-56.72,47.19-15.62,103.8-20.64,146.76,8.36,50.27-139-28.8-288.25-148-363.67-121.16-81.06-230.36-118.9-373-122.86C697.92-343.31,469.9-297.5,395.22-137.78Z"/><path class="cls-8" d="M1171.57,717.23c.21-70-30.17-139.56-81.66-187s-123.32-72-193.07-66C770.25,475.07,662.52,579.11,535.5,576c-90.67-2.21-170.64-59-259.16-78.71-75-16.75-155.93-5.62-223.64,30.75S-69,625.76-96.41,697.55Z"/><path class="cls-6" d="M523.3,417.55c0-19.59,23.1-29.54,28.57-20.92,3.3,5.21-20.25-.95,9.11,28.41,7.64,7.63-.69,26.15-15.27,23.6C530,445.91,523.3,430.12,523.3,417.55Z"/><path class="cls-6" d="M580.11,471.06c6,1.36,10.43-7.45,3.47-9.33-3.49-.21-9.71-1.11-11.85,2C571.74,467.73,576.5,470.68,580.11,471.06Z"/><path class="cls-4" d="M158-2.84c13.81,4.41,35.5,14.91,34,32C177,67.64,102.92-1.43,158-2.84Z"/><path class="cls-4" d="M233.76,7.87c3.8-2.26,7,.64,9.05,3.66C249.39,20.66,218.4,16.53,233.76,7.87Z"/><path class="cls-9" d="M826.16-138.23c38.44-20.47,84.45,1.32,116.74,30.55,47.51,43,67.16,161.06,12.24,169.25-13.49.12-25-16.94-21.34-39.51C944.27-42.28,1030.59-85.25,1081.56-96c57.64-12.19,85.28,5.39,92.14,74.32,2.15,21.6,6.25,58.11,14.71,78.1,41.65,98.51,197.71,11.23,255-53.5"/></g></g></svg>